# File created by Blade
# Date/Time:  Tue Jan 27 17:27:44 2015
#---------------------------------------------------------
:version 1.10
:name HOM
:units
  mass 1.0
  length 1.000000
  angle deg
:documentation
     Acclaim Skeleton File
:root
   axis xyz
   order TX TY TZ RX RY RZ
   position 0.000000 0.000000 0.000000
   orientation 0 0 0
:bonedata
   begin
      id 1
      name Spine_dum
      direction 0.000000 1.000000 0.000000
      length 7.539951
      axis 0.0 0.0 0.0 xyz
   end
   begin
      id 2
      name LeftUpLeg_dum
      direction 1.000000 0.000000 0.000000
      length 3.345476
      axis 0.0 0.0 0.0 xyz
   end
   begin
      id 3
      name RightUpLeg_dum
      direction -1.000000 0.000000 0.000000
      length 3.345476
      axis 0.0 0.0 0.0 xyz
   end
   begin
      id 4
      name Spine
      direction 0.000000 1.000000 0.000000
      length 0.000000
      axis 0.0 0.0 0.0 xyz
      dof rx ry rz
   end
   begin
      id 5
      name Spine_dum1
      direction 0.000000 1.000000 0.000000
      length 15.093809
      axis 0.0 0.0 0.0 xyz
   end
   begin
      id 6
      name Spine_dum2
      direction 0.000000 1.000000 0.000000
      length 9.738928
      axis 0.0 0.0 0.0 xyz
   end
   begin
      id 7
      name Spine_dum3
      direction 0.000000 1.000000 0.000000
      length 9.738928
      axis 0.0 0.0 0.0 xyz
   end
   begin
      id 8
      name Head
      direction 0.000000 1.000000 0.000000
      length 4.527550
      axis 0.0 0.0 0.0 xyz
      dof rx ry rz
   end
   begin
      id 9
      name LeftShoulder
      direction 1.000000 0.000000 0.000000
      length 7.084015
      axis 0.0 0.0 -90.0 xyz
      dof rx ry rz
   end
   begin
      id 10
      name LeftArm
      direction 1.000000 0.000000 0.000000
      length 10.259319
      axis 0.0 0.0 -90.0 xyz
      dof rx ry rz
   end
   begin
      id 11
      name LeftForeArm
      direction 1.000000 0.000000 0.000000
      length 9.896984
      axis 0.0 0.0 -90.0 xyz
      dof ry rz rx
   end
   begin
      id 12
      name LeftHand
      direction 0.000000 0.000000 0.000000
      length 0.000000
      axis 0.0 0.0 -90.0 xyz
      dof rx ry rz
   end
   begin
      id 13
      name LeftHand_dum1
      direction 0.000000 0.000000 0.000000
      length 0.000000
      axis 0.0 0.0 -90.0 xyz
   end
   begin
      id 14
      name LeftHand_dum2
      direction 1.000000 0.000000 0.000000
      length 3.937000
      axis 0.0 0.0 -90.0 xyz
   end
   begin
      id 15
      name LeftHandThumb1
      direction 0.000000 0.000000 1.000000
      length 3.937000
      axis 0.0 0.0 -90.0 xyz
      dof rx rz ry
   end
   begin
      id 16
      name RightShoulder
      direction -1.000000 0.000000 0.000000
      length 7.084015
      axis 0.0 0.0 90.0 xyz
      dof rx ry rz
   end
   begin
      id 17
      name RightArm
      direction -1.000000 0.000000 0.000000
      length 10.259319
      axis 0.0 0.0 90.0 xyz
      dof rx ry rz
   end
   begin
      id 18
      name RightForeArm
      direction -1.000000 0.000000 0.000000
      length 9.896984
      axis 0.0 0.0 90.0 xyz
      dof ry rz rx
   end
   begin
      id 19
      name RightHand
      direction 0.000000 0.000000 0.000000
      length 0.000000
      axis 0.0 0.0 90.0 xyz
      dof rx ry rz
   end
   begin
      id 20
      name RightHand_dum1
      direction 0.000000 0.000000 0.000000
      length 0.000000
      axis 0.0 0.0 90.0 xyz
   end
   begin
      id 21
      name RightHand_dum2
      direction -1.000000 0.000000 0.000000
      length 3.937000
      axis 0.0 0.0 90.0 xyz
   end
   begin
      id 22
      name RightHandThumb1
      direction 0.000000 0.000000 1.000000
      length 3.937000
      axis 0.0 0.0 90.0 xyz
      dof rx rz ry
   end
   begin
      id 23
      name LeftUpLeg
      direction 0.000000 -1.000000 0.000000
      length 19.114733
      axis 0.0 0.0 0.0 xyz
      dof rx ry rz
   end
   begin
      id 24
      name LeftLeg
      direction 0.000000 -1.000000 0.000000
      length 16.045604
      axis 0.0 0.0 0.0 xyz
      dof rx ry rz
   end
   begin
      id 25
      name LeftFoot
      direction 0.000000 -0.258819 0.965926
      length 5.543155
      axis 15.0 0.0 0.0 xyz
      dof rx ry rz
   end
   begin
      id 26
      name LeftToeBase
      direction 0.000000 0.000000 1.000000
      length 2.952750
      axis 0.0 0.0 0.0 xyz
      dof rx ry rz
   end
   begin
      id 27
      name RightUpLeg
      direction 0.000000 -1.000000 0.000000
      length 19.114733
      axis 0.0 0.0 0.0 xyz
      dof rx ry rz
   end
   begin
      id 28
      name RightLeg
      direction 0.000000 -1.000000 0.000000
      length 16.045604
      axis 0.0 0.0 0.0 xyz
      dof rx ry rz
   end
   begin
      id 29
      name RightFoot
      direction 0.000000 -0.258819 0.965926
      length 5.543155
      axis 15.0 0.0 0.0 xyz
      dof rx ry rz
   end
   begin
      id 30
      name RightToeBase
      direction 0.000000 0.000000 1.000000
      length 2.952750
      axis 0.0 0.0 0.0 xyz
      dof rx ry rz
   end
:hierarchy
   begin
      root Spine_dum LeftUpLeg_dum RightUpLeg_dum
      Spine_dum Spine
      LeftUpLeg_dum LeftUpLeg
      RightUpLeg_dum RightUpLeg
      Spine Spine_dum1 Spine_dum2 Spine_dum3
      Spine_dum1 Head
      Spine_dum2 LeftShoulder
      Spine_dum3 RightShoulder
      LeftShoulder LeftArm
      LeftArm LeftForeArm
      LeftForeArm LeftHand
      LeftHand LeftHand_dum1 LeftHand_dum2
      LeftHand_dum1 LeftHandThumb1
      RightShoulder RightArm
      RightArm RightForeArm
      RightForeArm RightHand
      RightHand RightHand_dum1 RightHand_dum2
      RightHand_dum1 RightHandThumb1
      LeftUpLeg LeftLeg
      LeftLeg LeftFoot
      LeftFoot LeftToeBase
      RightUpLeg RightLeg
      RightLeg RightFoot
      RightFoot RightToeBase
   end

# File created by Blade
# Date/Time:  Tue Jan 27 17:27:32 2015
# Frame Rate: 120.000 fps
#------------------------------------------------------
:FULLY-SPECIFIED
:DEGREES
667
root 4.668392 37.366617 0.110090 5.833219 36.682640 -7.329031
Spine 0.021238 2.846573 3.856363
Head 5.593238 -10.517961 6.370474
LeftShoulder -2.275665 -11.108369 10.138284
LeftArm 1.483033 -13.172096 -58.131088
LeftForeArm 8.390449 -0.000000 108.022579
LeftHand -15.957327 0.000000 38.149520
LeftHandThumb1 -26.253704 0.000000 33.147579
RightShoulder -7.830627 -19.681757 0.635473
RightArm 15.189955 -23.677733 59.006540
RightForeArm 187.315271 0.000000 28.436070
RightHand 0.355245 -0.000000 1.010373
RightHandThumb1 -24.326973 -0.000000 -32.862282
LeftUpLeg -12.350397 -10.233692 4.865922
LeftLeg 8.179520 -0.000000 -0.000000
LeftFoot -7.723816 -20.038457 -14.037215
LeftToeBase 18.946915 -0.000000 -0.000000
RightUpLeg -37.622667 11.103822 -4.157735
RightLeg 101.810946 -0.000000 -0.000000
RightFoot -14.556013 2.537624 2.746502
RightToeBase -1.158707 -0.000000 0.000000
668
root 4.659705 37.364881 0.112363 5.571681 36.581098 -7.407432
Spine 0.317886 2.857885 3.873427
Head 5.637294 -10.496118 6.395391
LeftShoulder -2.226390 -11.166933 10.209646
LeftArm 1.455408 -13.202011 -58.124790
LeftForeArm 8.432599 -0.000000 108.021364
LeftHand -15.897663 0.000000 38.057041
LeftHandThumb1 -26.253704 0.000000 33.147579
RightShoulder -7.799398 -19.678196 0.614337
RightArm 15.253492 -23.693970 59.038431
RightForeArm 187.364923 -0.000000 28.424560
RightHand 0.405980 -0.000000 1.255382
RightHandThumb1 -24.326973 -0.000000 -32.862282
LeftUpLeg -12.269805 -9.414506 4.798231
LeftLeg 8.546432 -0.000000 -0.000000
LeftFoot -7.765348 -20.802735 -14.021103
LeftToeBase 19.487007 -0.000000 -0.000000
RightUpLeg -37.747261 10.922561 -3.918147
RightLeg 99.367798 -0.000000 -0.000000
RightFoot -15.156763 2.306495 3.321328
RightToeBase -0.959233 -0.000000 0.000000
669
root 4.654593 37.363936 0.104588 5.430268 36.456005 -7.381416
Spine 0.544584 2.877547 3.789009
Head 5.698960 -10.436684 6.417275
LeftShoulder -2.171014 -11.220451 10.283788
LeftArm 1.412120 -13.241046 -58.099387
LeftForeArm 8.455001 -0.000000 108.030364
LeftHand -15.854624 -0.000000 37.973161
LeftHandThumb1 -26.253704 0.000000 33.147579
RightShoulder -7.758547 -19.660923 0.616605
RightArm 15.291535 -23.701293 59.064445
RightForeArm 187.382790 -0.000000 28.412956
RightHand 0.360932 -0.000000 1.111834
RightHandThumb1 -24.326973 -0.000000 -32.862282
LeftUpLeg -12.139993 -9.187396 4.716688
LeftLeg 8.629598 -0.000000 -0.000000
LeftFoot -7.786387 -20.895289 -13.735362
LeftToeBase 19.133552 -0.000000 -0.000000
RightUpLeg -37.934260 10.694049 -3.784733
RightLeg 96.807953 -0.000000 -0.000000
RightFoot -15.764666 1.974061 3.487851
RightToeBase -0.776764 -0.000000 0.000000
670
root 4.649742 37.363431 0.093160 5.341058 36.275301 -7.345345
Spine 0.706482 2.935134 3.686710
Head 5.802790 -10.363307 6.445713
LeftShoulder -2.130181 -11.238738 10.354763
LeftArm 1.400192 -13.271650 -58.071107
LeftForeArm 8.431044 0.000000 108.035888
LeftHand -15.797646 0.000000 38.047687
LeftHandThumb1 -26.253704 0.000000 33.147579
RightShoulder -7.721044 -19.675622 0.616979
RightArm 15.342055 -23.689936 59.116659
RightForeArm 187.289982 0.000000 28.398509
RightHand 0.368507 -0.000000 1.190207
RightHandThumb1 -24.326973 -0.000000 -32.862282
LeftUpLeg -12.008035 -9.156670 4.670935
LeftLeg 8.611974 -0.000000 -0.000000
LeftFoot -7.804699 -20.790593 -13.732066
LeftToeBase 19.046834 -0.000000 -0.000000
RightUpLeg -38.168141 10.546521 -3.684027
RightLeg 94.122413 -0.000000 -0.000000
RightFoot -16.271166 1.663743 3.758042
RightToeBase -1.573930 -0.000000 0.000000
671
root 4.644006 37.362579 0.083906 5.217108 36.088214 -7.312694
Spine 0.919597 2.985132 3.588733
Head 5.888397 -10.325566 6.472353
LeftShoulder -2.117172 -11.278576 10.422480
LeftArm 1.404897 -13.288442 -58.024042
LeftForeArm 8.386299 -0.000000 108.012967
LeftHand -15.800317 -0.000000 38.189880
LeftHandThumb1 -26.253704 0.000000 33.147579
RightShoulder -7.662280 -19.672653 0.619946
RightArm 15.369956 -23.728423 59.134687
RightForeArm 187.372676 -0.000000 28.410171
RightHand 0.349621 -0.000000 1.265284
RightHandThumb1 -24.326973 -0.000000 -32.862282
LeftUpLeg -11.837626 -9.044938 4.611004
LeftLeg 8.586910 -0.000000 -0.000000
LeftFoot -7.815103 -20.733623 -13.777651
LeftToeBase 19.077355 -0.000000 -0.000000
RightUpLeg -38.330760 10.356116 -3.562783
RightLeg 91.318236 -0.000000 -0.000000
RightFoot -16.772551 1.275907 3.632339
RightToeBase -1.492212 -0.000000 0.000000
